<svg width="161" height="42" viewBox="0 0 161 42" fill="none" xmlns="http://www.w3.org/2000/svg">
<rect x="118" y="15" width="12" height="12" fill="white"/>
<path d="M25.5723 18.3965C25.5723 19.5566 25.4199 20.6758 25.1152 21.7539C24.8223 22.8203 24.4004 23.8223 23.8496 24.7598C23.2988 25.6855 22.6426 26.5352 21.8809 27.3086C21.1191 28.0703 20.2695 28.7266 19.332 29.2773C18.3945 29.8281 17.3867 30.2559 16.3086 30.5605C15.2422 30.8535 14.1289 31 12.9688 31H5.375V5.79297H12.9688C14.1289 5.79297 15.2422 5.94531 16.3086 6.25C17.3867 6.54297 18.3945 6.96484 19.332 7.51562C20.2695 8.06641 21.1191 8.72852 21.8809 9.50195C22.6426 10.2637 23.2988 11.1133 23.8496 12.0508C24.4004 12.9766 24.8223 13.9785 25.1152 15.0566C25.4199 16.123 25.5723 17.2363 25.5723 18.3965ZM20.5273 18.3965C20.5273 17.3535 20.3281 16.375 19.9297 15.4609C19.543 14.5469 19.0039 13.75 18.3125 13.0703C17.6328 12.3789 16.8301 11.834 15.9043 11.4355C14.9902 11.0371 14.0117 10.8379 12.9688 10.8379H10.4551V25.9551H12.9688C14.0117 25.9551 14.9902 25.7617 15.9043 25.375C16.8301 24.9766 17.6328 24.4375 18.3125 23.7578C19.0039 23.0664 19.543 22.2637 19.9297 21.3496C20.3281 20.4238 20.5273 19.4395 20.5273 18.3965ZM37.1582 26.3945C37.3457 26.4531 37.5332 26.4941 37.7207 26.5176C37.9082 26.5293 38.0957 26.5352 38.2832 26.5352C38.752 26.5352 39.2031 26.4707 39.6367 26.3418C40.0703 26.2129 40.4746 26.0312 40.8496 25.7969C41.2363 25.5508 41.5762 25.2578 41.8691 24.918C42.1738 24.5664 42.4199 24.1797 42.6074 23.7578L46.123 27.291C45.6777 27.9238 45.1621 28.4922 44.5762 28.9961C44.002 29.5 43.375 29.9277 42.6953 30.2793C42.0273 30.6309 41.3184 30.8945 40.5684 31.0703C39.8301 31.2578 39.0684 31.3516 38.2832 31.3516C36.959 31.3516 35.7109 31.1055 34.5391 30.6133C33.3789 30.1211 32.3594 29.4355 31.4805 28.5566C30.6133 27.6777 29.9277 26.6348 29.4238 25.4277C28.9199 24.209 28.668 22.873 28.668 21.4199C28.668 19.9316 28.9199 18.5723 29.4238 17.3418C29.9277 16.1113 30.6133 15.0625 31.4805 14.1953C32.3594 13.3281 33.3789 12.6543 34.5391 12.1738C35.7109 11.6934 36.959 11.4531 38.2832 11.4531C39.0684 11.4531 39.8359 11.5469 40.5859 11.7344C41.3359 11.9219 42.0449 12.1914 42.7129 12.543C43.3926 12.8945 44.0254 13.3281 44.6113 13.8438C45.1973 14.3477 45.7129 14.916 46.1582 15.5488L37.1582 26.3945ZM39.6191 16.498C39.3965 16.416 39.1738 16.3633 38.9512 16.3398C38.7402 16.3164 38.5176 16.3047 38.2832 16.3047C37.627 16.3047 37.0059 16.4277 36.4199 16.6738C35.8457 16.9082 35.3418 17.248 34.9082 17.6934C34.4863 18.1387 34.1523 18.6777 33.9062 19.3105C33.6602 19.9316 33.5371 20.6348 33.5371 21.4199C33.5371 21.5957 33.543 21.7949 33.5547 22.0176C33.5781 22.2402 33.6074 22.4688 33.6426 22.7031C33.6895 22.9258 33.7422 23.1426 33.8008 23.3535C33.8594 23.5645 33.9355 23.752 34.0293 23.916L39.6191 16.498ZM54.9316 31L47.7598 12.1738H53.2266L57.3398 23.916L61.4355 12.1738H66.9199L59.748 31H54.9316ZM69.0312 13.3516C69.0312 12.3086 69.2305 11.3301 69.6289 10.416C70.0273 9.50195 70.5664 8.70508 71.2461 8.02539C71.9375 7.33398 72.7402 6.78906 73.6543 6.39062C74.5684 5.99219 75.5469 5.79297 76.5898 5.79297H88.1562V10.8379H76.5898C76.2383 10.8379 75.9102 10.9023 75.6055 11.0312C75.3008 11.1602 75.0312 11.3418 74.7969 11.5762C74.5742 11.7988 74.3984 12.0625 74.2695 12.3672C74.1406 12.6719 74.0762 13 74.0762 13.3516C74.0762 13.7031 74.1406 14.0371 74.2695 14.3535C74.3984 14.6582 74.5742 14.9277 74.7969 15.1621C75.0312 15.3848 75.3008 15.5605 75.6055 15.6895C75.9102 15.8184 76.2383 15.8828 76.5898 15.8828H81.6348C82.6777 15.8828 83.6562 16.082 84.5703 16.4805C85.4961 16.8672 86.2988 17.4062 86.9785 18.0977C87.6699 18.7773 88.209 19.5801 88.5957 20.5059C88.9941 21.4199 89.1934 22.3984 89.1934 23.4414C89.1934 24.4844 88.9941 25.4629 88.5957 26.377C88.209 27.291 87.6699 28.0938 86.9785 28.7852C86.2988 29.4648 85.4961 30.0039 84.5703 30.4023C83.6562 30.8008 82.6777 31 81.6348 31H70.4375V25.9551H81.6348C81.9863 25.9551 82.3145 25.8906 82.6191 25.7617C82.9238 25.6328 83.1875 25.457 83.4102 25.2344C83.6445 25 83.8262 24.7305 83.9551 24.4258C84.084 24.1211 84.1484 23.793 84.1484 23.4414C84.1484 23.0898 84.084 22.7617 83.9551 22.457C83.8262 22.1523 83.6445 21.8887 83.4102 21.666C83.1875 21.4316 82.9238 21.25 82.6191 21.1211C82.3145 20.9922 81.9863 20.9277 81.6348 20.9277H76.5898C75.5469 20.9277 74.5684 20.7285 73.6543 20.3301C72.7402 19.9316 71.9375 19.3926 71.2461 18.7129C70.5664 18.0215 70.0273 17.2188 69.6289 16.3047C69.2305 15.3789 69.0312 14.3945 69.0312 13.3516ZM98.0547 31H93.2559V4.68555H98.0547V13C98.6289 12.5664 99.2207 12.2617 99.8301 12.0859C100.439 11.8984 101.061 11.8047 101.693 11.8047C102.854 11.8047 103.943 12.0273 104.963 12.4727C105.982 12.9063 106.867 13.5098 107.617 14.2832C108.379 15.0449 108.977 15.9414 109.41 16.9727C109.855 17.9922 110.078 19.082 110.078 20.2422V31H105.244V20.2422H105.279C105.279 19.75 105.186 19.2871 104.998 18.8535C104.811 18.4082 104.553 18.0215 104.225 17.6934C103.896 17.3652 103.516 17.1074 103.082 16.9199C102.648 16.7324 102.186 16.6387 101.693 16.6387C101.189 16.6387 100.715 16.7324 100.27 16.9199C99.8242 17.1074 99.4375 17.3652 99.1094 17.6934C98.7812 18.0215 98.5234 18.4082 98.3359 18.8535C98.1484 19.2871 98.0547 19.75 98.0547 20.2422V31ZM132.949 21.4199C132.949 22.8262 132.697 24.1387 132.193 25.3574C131.689 26.5645 131.004 27.6133 130.137 28.5039C129.27 29.3828 128.25 30.0801 127.078 30.5957C125.918 31.0996 124.67 31.3516 123.334 31.3516C122.01 31.3516 120.762 31.0996 119.59 30.5957C118.43 30.0801 117.41 29.3828 116.531 28.5039C115.664 27.6133 114.979 26.5645 114.475 25.3574C113.971 24.1387 113.719 22.8262 113.719 21.4199C113.719 19.9902 113.971 18.666 114.475 17.4473C114.979 16.2285 115.664 15.1797 116.531 14.3008C117.41 13.4102 118.43 12.7129 119.59 12.209C120.762 11.7051 122.01 11.4531 123.334 11.4531C124.67 11.4531 125.918 11.6934 127.078 12.1738C128.25 12.6426 129.27 13.3164 130.137 14.1953C131.004 15.0625 131.689 16.1113 132.193 17.3418C132.697 18.5605 132.949 19.9199 132.949 21.4199ZM128.115 21.4199C128.115 20.6465 127.986 19.9492 127.729 19.3281C127.482 18.6953 127.143 18.1562 126.709 17.7109C126.275 17.2539 125.766 16.9082 125.18 16.6738C124.605 16.4277 123.99 16.3047 123.334 16.3047C122.678 16.3047 122.057 16.4277 121.471 16.6738C120.896 16.9082 120.393 17.2539 119.959 17.7109C119.537 18.1562 119.203 18.6953 118.957 19.3281C118.711 19.9492 118.588 20.6465 118.588 21.4199C118.588 22.1465 118.711 22.8203 118.957 23.4414C119.203 24.0625 119.537 24.6016 119.959 25.0586C120.393 25.5156 120.896 25.8789 121.471 26.1484C122.057 26.4062 122.678 26.5352 123.334 26.5352C123.99 26.5352 124.605 26.4121 125.18 26.166C125.766 25.9199 126.275 25.5742 126.709 25.1289C127.143 24.6836 127.482 24.1445 127.729 23.5117C127.986 22.8789 128.115 22.1816 128.115 21.4199ZM141.688 38.1719H136.854V12.1738H138.014L139.93 14.4414C140.363 14.0312 140.838 13.6445 141.354 13.2812C141.869 12.918 142.402 12.6074 142.953 12.3496C143.516 12.0801 144.096 11.8691 144.693 11.7168C145.291 11.5645 145.895 11.4883 146.504 11.4883C147.828 11.4883 149.07 11.7285 150.23 12.209C151.402 12.6777 152.422 13.3457 153.289 14.2129C154.168 15.0801 154.859 16.1289 155.363 17.3594C155.867 18.5781 156.119 19.9316 156.119 21.4199C156.119 22.9668 155.867 24.3613 155.363 25.6035C154.859 26.834 154.168 27.8828 153.289 28.75C152.422 29.6055 151.402 30.2617 150.23 30.7188C149.07 31.1758 147.828 31.4043 146.504 31.4043C146.082 31.4043 145.66 31.3574 145.238 31.2637C144.828 31.1699 144.418 31.0469 144.008 30.8945C143.609 30.7305 143.211 30.5488 142.812 30.3496C142.426 30.1504 142.051 29.9453 141.688 29.7344V38.1719ZM151.303 21.4199C151.303 20.623 151.174 19.9082 150.916 19.2754C150.67 18.6426 150.33 18.1094 149.896 17.6758C149.463 17.2305 148.953 16.8906 148.367 16.6562C147.781 16.4219 147.16 16.3047 146.504 16.3047C145.848 16.3047 145.227 16.4219 144.641 16.6562C144.066 16.8906 143.562 17.2305 143.129 17.6758C142.695 18.1094 142.35 18.6426 142.092 19.2754C141.846 19.9082 141.723 20.623 141.723 21.4199C141.723 22.1816 141.846 22.8789 142.092 23.5117C142.35 24.1445 142.695 24.6836 143.129 25.1289C143.562 25.5742 144.066 25.9199 144.641 26.166C145.227 26.4121 145.848 26.5352 146.504 26.5352C147.16 26.5352 147.781 26.4121 148.367 26.166C148.953 25.9199 149.463 25.5742 149.896 25.1289C150.33 24.6836 150.67 24.1445 150.916 23.5117C151.174 22.8789 151.303 22.1816 151.303 21.4199Z" fill="white"/>
<path d="M66 9H27C26.3333 7 23.9 1 15.5 1C7.1 1 1.66667 1 0.5 1V35.5H14.5H134.5V41H144.5V34C147.833 35 156.6 34 159 26C161.4 18 156.5 12.5 156.5 12.5" stroke="white"/>
<path d="M120.773 24.5439C120.131 24.5439 119.612 25.0689 119.612 25.7105C119.612 26.3522 120.131 26.8772 120.773 26.8772C121.414 26.8772 121.939 26.3522 121.939 25.7105C121.939 25.0689 121.414 24.5439 120.773 24.5439ZM117.273 15.2105V16.3772H118.439L120.539 20.8047L119.752 22.2339C119.659 22.3972 119.606 22.5897 119.606 22.7939C119.606 23.4355 120.131 23.9605 120.773 23.9605H127.773V22.7939H121.018C120.936 22.7939 120.872 22.7297 120.872 22.648L120.889 22.578L121.414 21.6272H125.76C126.198 21.6272 126.583 21.388 126.781 21.0264L128.869 17.2405C128.916 17.1589 128.939 17.0597 128.939 16.9605C128.939 16.6397 128.677 16.3772 128.356 16.3772H119.729L119.18 15.2105H117.273ZM126.606 24.5439C125.964 24.5439 125.445 25.0689 125.445 25.7105C125.445 26.3522 125.964 26.8772 126.606 26.8772C127.248 26.8772 127.773 26.3522 127.773 25.7105C127.773 25.0689 127.248 24.5439 126.606 24.5439Z" fill="#202020"/>
</svg>
